# xmcd
# Track frame offsets:
# 150
# 22627
# 41440
# 55197
# 76735
# 96417
# 109527
# 127196
# 146143
# 154801
# 164254
# 175494
# 185128
# 194631
#
# Disc length: 2743 seconds
# Revision: 1
# Processed by: cddbd v1.5.2PL0 Copyright (c) Steve Scherf et al.
# Submitted via: VisiTrax 2.11.3.279 - For more info visit www.synapsa.com
#
DISCID=bf0ab50e
DTITLE=Johnny Cash - Ride This Train
DYEAR=1960
DGENRE=Country
TTITLE0=Loading Coal
TTITLE1=Slow Rider
TTITLE2=Lumberjack
TTITLE3=Dorraine Of Ponchartrain
TTITLE4=Going To Memphis
TTITLE5=When Papa Played The Dobro
TTITLE6=Boss Jack
TTITLE7=Old Doc Brown
TTITLE8=Second Honeymoon
TTITLE9=Smiling Bill McCall
TTITLE10=Seasons Of My Heart
TTITLE11=The Story Of A Broken Heart
TTITLE12=Down The Street To 301
TTITLE13=Oh Lonesome Me
EXTD=Play 24-7 Limited.
EXTT0=
EXTT1=
EXTT2=
EXTT3=
EXTT4=
EXTT5=
EXTT6=
EXTT7=
EXTT8=
EXTT9=
EXTT10=
EXTT11=
EXTT12=
EXTT13=
PLAYORDER=
